<svg width="179" height="40" viewBox="0 0 179 40" fill="none" xmlns="http://www.w3.org/2000/svg">
<path fill-rule="evenodd" clip-rule="evenodd" d="M68.6402 11.7928C72.4448 11.7968 74.3739 11.8688 75.9797 12.4336C80.0285 13.8473 80.5975 16.7483 80.5975 18.7293C80.5975 21.1633 79.7184 23.7465 76.4075 24.7041L81.2735 33.103H84.2305V36.5833C83.058 36.6534 82.3173 36.7205 81.5374 36.7757C80.759 36.8388 80.1359 36.8712 79.6699 36.8712C78.7132 36.8712 77.9975 36.7273 77.5245 36.4341C77.0448 36.1497 76.6183 35.6513 76.2469 34.9319L71.1362 25.5679H68.3631V31.0762H63.0451V15.5711H60.7891V11.7926L68.6402 11.7928ZM20.2415 11.7058C21.4392 11.7058 22.2532 11.9354 22.6887 12.3919C23.1237 12.8521 23.3283 13.6052 23.3283 14.6531V27.2214H25.699V30.6391C25.699 30.6391 22.8226 31.0367 21.1105 31.0367C20.1893 31.0367 19.504 30.9021 19.0433 30.6391C18.5856 30.3798 18.2787 29.96 18.1244 29.3845C17.2823 30.0131 15.1244 31.4397 12.4878 31.4397C10.7735 31.4397 8.91461 30.9471 7.5241 29.6198C6.99507 29.1103 6.10795 27.6988 6.10795 24.9386V15.5179H3.73633V12.061C4.47761 11.9527 5.29207 11.8707 6.18874 11.8028C7.07484 11.7348 7.79101 11.7058 8.32809 11.7058C9.52675 11.7058 10.3427 11.9354 10.7796 12.3919C11.2108 12.8521 11.4274 13.6052 11.4274 14.6531V24.1922C11.4274 25.0572 11.5779 25.7617 12.0395 26.1155C13.1963 27.0092 15.6045 26.6751 16.2296 26.607C16.8564 26.5443 17.451 26.448 18.0109 26.3142V15.5179H15.6472V12.061C16.391 11.9527 17.2054 11.8707 18.0973 11.8028C18.9897 11.7348 19.7068 11.7058 20.2415 11.7058ZM54.5088 11.7058C55.7356 11.7058 56.5575 11.9354 56.9946 12.3919C57.432 12.8521 57.6445 13.6062 57.6445 14.6531V31.0773H52.3266V15.5189H49.8022V12.0967C50.1797 12.0449 50.5899 12.0012 51.0285 11.9588C51.0285 11.9588 53.4013 11.7058 54.5088 11.7058ZM40.6799 11.3117C45.0005 11.3117 46.4565 14.5863 46.4565 17.7998V27.2214H48.7751V30.6391C48.7751 30.6391 46.728 30.8951 46.3237 30.9381C45.9161 30.9737 45.5181 31.0011 45.1397 31.0172C44.792 31.0262 44.5126 31.0309 44.2734 31.0367H44.1835C44.1295 31.0367 44.0816 31.0289 44.0273 31.0289C43.9304 31.0262 43.8358 31.0254 43.7409 31.0172C43.3753 30.9991 43.0539 30.9529 42.7765 30.8835C42.7508 30.8788 42.7342 30.8732 42.7123 30.8662C42.4872 30.8096 42.0533 30.6484 41.7867 30.3646C41.3485 29.8984 41.1406 29.1322 41.1406 28.0817V18.5459C41.1406 17.657 40.9339 17.0113 40.5237 16.6195C40.2694 16.384 39.9374 16.2188 39.5324 16.1485C37.135 15.7268 35.0162 16.2939 34.4796 16.4266V30.8744H29.1578V15.5179H26.5215V12.0959C27.2611 11.9663 29.7771 11.7058 31.3038 11.7058C32.248 11.7058 32.9569 11.8363 33.4314 12.0959C33.9006 12.3588 34.2253 12.7678 34.4016 13.3177C36.6349 11.449 39.5584 11.3117 40.6799 11.3117ZM71.2986 15.465H68.3631V21.9774H71.5073C74.2501 21.9774 75.2892 20.1887 75.2892 18.6588C75.2892 17.1993 74.8685 15.465 71.2986 15.465ZM54.1645 2.49072C55.0513 2.49072 55.7283 2.69017 56.1695 3.07984C56.5937 3.46518 56.8121 4.12702 56.8121 5.05406V5.57844C56.8121 6.50667 56.5993 7.16048 56.1695 7.5319C55.7283 7.90866 55.0545 8.10147 54.1645 8.10147H53.8848C52.9765 8.10147 52.2924 7.91263 51.8688 7.53441C51.4501 7.16413 51.2349 6.50547 51.2349 5.57844V5.05406C51.2349 4.13158 51.4501 3.46518 51.8688 3.07984C52.3012 2.68886 52.9797 2.49072 53.8848 2.49072H54.1645Z" fill="black"/>
<path d="M89.5908 19.2673H94.3438V18.2847H90.7018V11.791H89.5908V19.2673ZM100.627 19.2673H101.78L98.8434 11.791H97.818L94.8808 19.2673H96.0238L96.7391 17.3662H99.9114L100.627 19.2673ZM97.1132 16.3943L98.3307 13.1795L99.5482 16.3943H97.1132ZM108.441 19.3527C110.161 19.3527 111.314 18.3595 111.314 16.6506V11.791H110.246V16.6826C110.246 17.7507 109.52 18.3595 108.441 18.3595C107.373 18.3595 106.647 17.7507 106.647 16.6826V11.791H105.579V16.6506C105.579 18.3595 106.732 19.3527 108.441 19.3527ZM113.016 19.2673H114.127V13.5212L117.737 19.2673H118.965V11.791H117.854V17.5478L114.255 11.791H113.016V19.2673ZM120.804 19.2673H121.915V11.791H120.804V19.2673ZM125.857 19.2673H126.957L129.745 11.791H128.623L126.402 17.9323L124.191 11.791H123.069L125.857 19.2673ZM130.894 19.2673H135.808V18.2847H132.005V15.903H134.985V14.9204H132.005V12.7736H135.69V11.791H130.894V19.2673ZM141.567 15.7214C142.23 15.3903 142.668 14.8349 142.668 14.0339C142.668 12.6989 141.749 11.791 140.243 11.791H137.317V19.2673H138.427V16.3195H140.297C140.937 16.3195 141.375 16.7894 141.428 17.4516L141.578 19.2673H142.657L142.507 17.3555C142.465 16.6292 142.112 16.0418 141.567 15.7214ZM138.427 12.7523H140.211C141.183 12.7523 141.557 13.3504 141.557 14.0339C141.557 14.7068 141.183 15.3369 140.211 15.3369H138.427V12.7523ZM146.873 19.3527C148.475 19.3527 149.628 18.5517 149.628 17.1846C149.628 14.333 145.367 15.5398 145.367 13.7242C145.367 13.094 145.911 12.6882 146.809 12.6882C147.727 12.6882 148.325 13.1902 148.4 13.9591H149.479C149.383 12.592 148.336 11.7056 146.809 11.7056C145.303 11.7056 144.256 12.528 144.256 13.7242C144.256 16.4797 148.496 15.401 148.496 17.1953C148.496 18.007 147.812 18.3702 146.873 18.3702C145.815 18.3702 145.185 17.7507 145.1 16.7894H144.021C144.106 18.3381 145.185 19.3527 146.873 19.3527ZM151.068 19.2673H152.179V11.791H151.068V19.2673ZM154.017 19.2673H156.313C158.396 19.2673 160.083 17.9643 160.083 15.5292C160.083 13.094 158.396 11.791 156.313 11.791H154.017V19.2673ZM155.128 18.2847V12.7736H156.249C157.638 12.7736 158.941 13.5533 158.941 15.5292C158.941 17.505 157.638 18.2847 156.249 18.2847H155.128ZM166.367 19.2673H167.521L164.584 11.791H163.558L160.621 19.2673H161.764L162.48 17.3662H165.652L166.367 19.2673ZM162.853 16.3943L164.071 13.1795L165.289 16.3943H162.853ZM168.634 19.2673H170.93C173.013 19.2673 174.701 17.9643 174.701 15.5292C174.701 13.094 173.013 11.791 170.93 11.791H168.634V19.2673ZM169.745 18.2847V12.7736H170.866C172.255 12.7736 173.558 13.5533 173.558 15.5292C173.558 17.505 172.255 18.2847 170.866 18.2847H169.745ZM89.5908 30.9463H94.5038V29.9635H90.7018V27.5818H93.6816V26.5992H90.7018V24.4524H94.3864V23.4698H89.5908V30.9463ZM96.013 30.9463H97.1237V25.2001L100.734 30.9463H101.962V23.4698H100.851V29.2266L97.2518 23.4698H96.013V30.9463ZM106.583 30.9463H107.694V23.4698H106.583V30.9463ZM109.532 30.9463H110.643V25.2001L114.253 30.9463H115.481V23.4698H114.37V29.2266L110.771 23.4698H109.532V30.9463ZM119.019 30.9463H120.13V24.4524H122.468V23.4698H116.68V24.4524H119.019V30.9463ZM123.586 30.9463H128.499V29.9635H124.697V27.5818H127.677V26.5992H124.697V24.4524H128.381V23.4698H123.586V30.9463ZM134.259 27.4003C134.921 27.0692 135.359 26.5138 135.359 25.7127C135.359 24.3777 134.44 23.4698 132.934 23.4698H130.008V30.9463H131.119V27.9984H132.988C133.629 27.9984 134.067 28.4683 134.12 29.1305L134.27 30.9463H135.348L135.199 29.0344C135.156 28.3081 134.804 27.7207 134.259 27.4003ZM131.119 24.4311H132.902C133.874 24.4311 134.248 25.0292 134.248 25.7127C134.248 26.3856 133.874 27.0158 132.902 27.0158H131.119V24.4311ZM137.306 30.9463H138.417V25.2001L142.027 30.9463H143.255V23.4698H142.144V29.2266L138.545 23.4698H137.306V30.9463ZM145.094 30.9463H150.008V29.9635H146.205V27.5818H149.185V26.5992H146.205V24.4524H149.89V23.4698H145.094V30.9463ZM153.215 30.9463H154.326V24.4524H156.665V23.4698H150.876V24.4524H153.215V30.9463Z" fill="#1868AF"/>
</svg>
